<?xml version="1.0" ?><svg height="36" id="svg2" version="1.1" viewBox="0 0 36 36.000001" width="36" xmlns="http://www.w3.org/2000/svg" xmlns:cc="http://creativecommons.org/ns#" xmlns:dc="http://purl.org/dc/elements/1.1/" xmlns:inkscape="http://www.inkscape.org/namespaces/inkscape" xmlns:rdf="http://www.w3.org/1999/02/22-rdf-syntax-ns#" xmlns:sodipodi="http://sodipodi.sourceforge.net/DTD/sodipodi-0.dtd" xmlns:svg="http://www.w3.org/2000/svg"><defs id="defs4"/><g id="layer1" transform="translate(0,-1016.3622)"><path d="M 27.478516 2 C 23.335386 2 20 5.3695 20 9.5 C 20 13.632 23.335403 17 27.478516 17 C 31.620623 17 35 13.6356 35 9.5 A 0.50004994 0.50004994 0 0 0 34.960938 9.3046875 A 0.50004994 0.50004994 0 0 0 34.958984 9.3046875 C 34.84727 5.2668875 31.55052 2.0019531 27.478516 2.0019531 L 27.478516 2 z M 27.478516 3 C 31.080571 3 34 5.9094 34 9.5 C 34 13.0924 31.080588 16 27.478516 16 C 23.875288 16 21 13.096 21 9.5 C 21 5.9057 23.875305 3 27.478516 3 z M 27.929688 4.984375 C 27.733185 4.9842359 27.537273 5.0105719 27.345703 5.0605469 C 26.579422 5.2603469 25.907304 5.8330688 25.433594 6.6679688 C 25.199735 7.0801601 25.024659 7.5298985 24.90625 8 L 23.925781 8 L 23.5 9 L 24.751953 9 C 24.725674 9.3333912 24.726292 9.6667617 24.753906 10 L 23.826172 10 L 23.400391 11 L 24.914062 11 C 25.032378 11.460741 25.204034 11.904002 25.433594 12.308594 C 25.907304 13.143594 26.579422 13.714263 27.345703 13.914062 C 28.111984 14.113863 28.946474 13.914037 29.619141 13.335938 L 30 13.009766 L 29.351562 12.25 L 28.970703 12.574219 C 28.505603 12.971419 28.04952 13.065066 27.597656 12.947266 C 27.145792 12.829466 26.673502 12.467953 26.302734 11.814453 C 26.162928 11.568037 26.057792 11.288719 25.970703 11 L 27.974609 11 L 28.400391 10 L 25.775391 10 C 25.744916 9.6683588 25.744587 9.3319623 25.773438 9 L 28.074219 9 L 28.5 8 L 25.960938 8 C 26.049077 7.7009316 26.158434 7.4144947 26.302734 7.1601562 C 26.673502 6.5066562 27.145792 6.1471969 27.597656 6.0292969 C 28.04952 5.9114969 28.505603 6.0032906 28.970703 6.4003906 L 29.351562 6.7246094 L 30 5.9648438 L 29.619141 5.640625 C 29.11464 5.209825 28.519194 4.9847922 27.929688 4.984375 z M 12.197266 9.0019531 C 9.3280735 9.0019531 7 11.320194 7 14.183594 L 7 17.273438 L 6.4589844 16.732422 A 0.50005 0.50005 0 0 0 6.0996094 16.582031 A 0.50005 0.50005 0 0 0 5.7519531 17.439453 L 7.1660156 18.853516 A 0.50005 0.50005 0 0 0 7.8730469 18.853516 L 9.2871094 17.439453 A 0.50005 0.50005 0 1 0 8.5800781 16.732422 L 8 17.3125 L 8 14.183594 C 8 11.858394 9.863257 10.001953 12.197266 10.001953 L 18.494141 10.001953 A 0.50005 0.50005 0 1 0 18.494141 9.0019531 L 12.197266 9.0019531 z M 27.472656 18 A 0.50005 0.50005 0 0 0 27.126953 18.146484 L 25.712891 19.560547 A 0.50064305 0.50064305 0 1 0 26.419922 20.269531 L 26.998047 19.689453 L 26.998047 22.818359 C 26.998047 25.143559 25.136732 27 22.802734 27 L 16.505859 27 A 0.50005 0.50005 0 1 0 16.505859 28 L 22.802734 28 C 25.671917 28 27.998047 25.681759 27.998047 22.818359 L 27.998047 19.724609 L 28.541016 20.269531 A 0.50064305 0.50064305 0 1 0 29.248047 19.560547 L 27.833984 18.146484 A 0.50005 0.50005 0 0 0 27.472656 18 z M 7.4804688 20.001953 C 3.337339 20.001953 -5.9211895e-016 23.3695 0 27.5 C 0 31.632 3.3373562 35 7.4804688 35 C 11.622577 35 15 31.6356 15 27.5 A 0.50004994 0.50004994 0 0 0 14.960938 27.304688 A 0.50004994 0.50004994 0 0 0 14.958984 27.304688 C 14.84727 23.266887 11.552473 20.003906 7.4804688 20.003906 L 7.4804688 20.001953 z M 7.4804688 21.001953 C 11.082524 21.001953 14 23.9094 14 27.5 C 14 31.0924 11.082541 34 7.4804688 34 C 3.8772412 34 1 31.096 1 27.5 C 1 23.9057 3.8772585 21.001953 7.4804688 21.001953 z M 7.4921875 23.001953 A 0.50005006 0.50005006 0 0 0 7 23.507812 L 7 24.048828 C 6.0359081 24.25921 5.2519531 24.958071 5.2519531 25.941406 C 5.2519531 27.104106 6.2928351 27.996094 7.5 27.996094 L 7.5 27.998047 C 8.230077 27.998047 8.7480469 28.493734 8.7480469 29.052734 C 8.7480469 29.611534 8.2300426 30.105469 7.5 30.105469 C 6.7699449 30.105469 6.2519531 29.611534 6.2519531 29.052734 A 0.50005006 0.50005006 0 1 0 5.2519531 29.052734 C 5.2519531 30.036251 6.0353698 30.735276 7 30.945312 L 7 31.494141 A 0.50005006 0.50005006 0 1 0 8 31.494141 L 8 31.048828 C 8.9802269 30.842731 9.7480469 30.050425 9.7480469 29.052734 C 9.7480469 28.016406 8.8781895 27.291169 7.84375 27.125 A 0.50005006 0.50005006 0 0 0 7.5 26.996094 C 6.7699449 26.996094 6.2519531 26.500206 6.2519531 25.941406 C 6.2519531 25.392052 6.7548378 24.911311 7.4648438 24.894531 A 0.50005006 0.50005006 0 0 0 7.5390625 24.894531 C 8.246892 24.913073 8.7480469 25.393105 8.7480469 25.941406 A 0.50005006 0.50005006 0 1 0 9.7480469 25.941406 C 9.7480469 24.943544 8.9802124 24.149418 8 23.943359 L 8 23.507812 A 0.50005006 0.50005006 0 0 0 7.4921875 23.001953 z " id="path5471-7-42" style="color:#000000;font-style:normal;font-variant:normal;font-weight:normal;font-stretch:normal;font-size:medium;line-height:normal;font-family:sans-serif;text-indent:0;text-align:start;text-decoration:none;text-decoration-line:none;text-decoration-style:solid;text-decoration-color:#000000;letter-spacing:normal;word-spacing:normal;text-transform:none;direction:ltr;block-progression:tb;writing-mode:lr-tb;baseline-shift:baseline;text-anchor:start;white-space:normal;clip-rule:nonzero;display:inline;overflow:visible;visibility:visible;opacity:1;isolation:auto;mix-blend-mode:normal;color-interpolation:sRGB;color-interpolation-filters:linearRGB;solid-color:#000000;solid-opacity:1;fill:#000000;fill-opacity:1;fill-rule:nonzero;stroke:none;stroke-width:0.99999988;stroke-linecap:round;stroke-linejoin:round;stroke-miterlimit:34.17825699;stroke-dasharray:none;stroke-dashoffset:0;stroke-opacity:1;color-rendering:auto;image-rendering:auto;shape-rendering:auto;text-rendering:auto;enable-background:accumulate" transform="translate(0,1016.3622)"/></g></svg>