<?xml version="1.0" ?><!DOCTYPE svg  PUBLIC '-//W3C//DTD SVG 1.1//EN'  'http://www.w3.org/Graphics/SVG/1.1/DTD/svg11.dtd'><svg enable-background="new 0 0 30 30" height="30px" id="Capa_1" version="1.1" viewBox="0 0 30 30" width="30px" xml:space="preserve" xmlns="http://www.w3.org/2000/svg" xmlns:xlink="http://www.w3.org/1999/xlink"><path d="M3.8,4.5C3.4,4.5,3,4.8,3,5.3c0,0.5,0.4,0.8,0.8,0.8c0.5,0,0.8-0.4,0.8-0.8C4.7,4.8,4.3,4.5,3.8,4.5z   M27.2,1.6H2.8c-1.5,0-2.7,1.2-2.7,2.7v21.3c0,1.5,1.2,2.7,2.7,2.7h24.5c1.5,0,2.7-1.2,2.7-2.7V4.3C29.9,2.9,28.7,1.6,27.2,1.6z   M28.4,25.7c0,0.7-0.5,1.2-1.2,1.2H2.8c-0.7,0-1.2-0.5-1.2-1.2v-4.1c0.2,0.2,0.5,0.4,0.7,0.7c0.4,0.4,0.8,0.9,1.4,1.2  c0.2,0.9,1,1.6,2,1.6c1,0,1.8-0.7,2-1.7c1.3-1,2.1-2.7,2.8-4.4c0.5-1.3,1.1-2.6,1.8-3.2c0.4,0.6,1,1,1.7,1c0.7,0,1.4-0.4,1.7-1  c0.4,0.3,0.8,0.7,1.2,1c0.6,0.6,1.3,1.2,2.1,1.6c0.3,0.7,1,1.3,1.9,1.3c1,0,1.8-0.7,2-1.6c1.2-0.8,1.9-2.2,2.7-3.6  c1-1.9,1.7-3.1,3-3.4V25.7z M5.1,23c0-0.3,0.2-0.5,0.5-0.5c0.3,0,0.5,0.2,0.5,0.5c0,0.3-0.2,0.5-0.5,0.5C5.4,23.5,5.1,23.3,5.1,23z   M13.4,14.7c0-0.3,0.2-0.5,0.5-0.5c0.3,0,0.5,0.2,0.5,0.5c0,0.3-0.2,0.5-0.5,0.5C13.7,15.2,13.4,14.9,13.4,14.7z M20.4,17.5  c0-0.3,0.2-0.5,0.5-0.5s0.5,0.2,0.5,0.5S21.1,18,20.9,18S20.4,17.8,20.4,17.5z M28.4,9.4c-2.3,0.3-3.3,2.4-4.3,4.3  c-0.5,1-1,2-1.7,2.7c-0.4-0.5-0.9-0.8-1.6-0.8c-0.8,0-1.4,0.4-1.8,1.1c-0.4-0.3-0.8-0.6-1.2-1c-0.6-0.6-1.3-1.2-2.1-1.6  c-0.3-0.8-1-1.4-1.9-1.4c-0.9,0-1.6,0.6-1.9,1.4c-1.4,0.6-2.2,2.4-3,4.3c-0.6,1.3-1.1,2.6-1.9,3.4C6.8,21.3,6.3,21,5.7,21  C5,21,4.4,21.4,4,21.8c-0.2-0.2-0.4-0.4-0.6-0.6c-0.5-0.6-1.1-1.1-1.8-1.3V9h26.9V9.4z M28.4,7.5H1.6V4.3c0-0.7,0.5-1.2,1.2-1.2  h24.5c0.7,0,1.2,0.5,1.2,1.2V7.5z M6.4,4.5C6,4.5,5.6,4.8,5.6,5.3c0,0.5,0.4,0.8,0.8,0.8c0.5,0,0.8-0.4,0.8-0.8  C7.2,4.8,6.9,4.5,6.4,4.5z M9,4.5c-0.5,0-0.8,0.4-0.8,0.8c0,0.5,0.4,0.8,0.8,0.8c0.5,0,0.8-0.4,0.8-0.8C9.8,4.8,9.4,4.5,9,4.5z" fill="#262324"/></svg>