<?xml version="1.0" ?><svg height="32" id="svg6485" version="1.1" viewBox="0 0 32 32" width="32" xmlns="http://www.w3.org/2000/svg" xmlns:cc="http://creativecommons.org/ns#" xmlns:dc="http://purl.org/dc/elements/1.1/" xmlns:inkscape="http://www.inkscape.org/namespaces/inkscape" xmlns:rdf="http://www.w3.org/1999/02/22-rdf-syntax-ns#" xmlns:sodipodi="http://sodipodi.sourceforge.net/DTD/sodipodi-0.dtd" xmlns:svg="http://www.w3.org/2000/svg"><defs id="defs6487"/><g id="layer1" transform="translate(0,-1020.3622)"><text id="text4366" style="font-style:normal;font-weight:normal;font-size:11.25px;line-height:125%;font-family:Sans;letter-spacing:0px;word-spacing:0px;fill:#000000;fill-opacity:1;stroke:none;stroke-width:1px;stroke-linecap:butt;stroke-linejoin:miter;stroke-opacity:1" x="12" xml:space="preserve" y="1036.3622"><tspan id="tspan4368" x="12" y="1036.3622"/></text><g id="text4981" style="font-style:normal;font-variant:normal;font-weight:normal;font-stretch:normal;font-size:12.37186241px;line-height:125%;font-family:'Roboto Condensed';-inkscape-font-specification:'Roboto Condensed, ';letter-spacing:0px;word-spacing:0px;fill:#000000;fill-opacity:1;stroke:none;stroke-width:1px;stroke-linecap:butt;stroke-linejoin:miter;stroke-opacity:1" transform="scale(1.1477838,0.87124422)"/><path d="M 25.498047 3.0019531 A 0.50005 0.50005 0 0 0 25.109375 3.1894531 L 21.109375 8.1894531 A 0.50005 0.50005 0 0 0 21.5 9 L 23 9 L 23 17.058594 C 21.556324 17.2544 20.276519 17.965091 19.347656 19 L 16.5 19 A 0.50004997 0.50004997 0 0 0 16.400391 19.011719 A 0.50004997 0.50004997 0 0 0 16 19.5 L 16 26.5 A 0.50004997 0.50004997 0 0 0 16.5 27 L 19.349609 27 C 20.448922 28.2237 22.038478 29 23.808594 29 C 27.116382 29 29.808596 26.3078 29.808594 23 C 29.808595 21.322253 29.114234 19.802932 28 18.712891 L 28 9 L 29.5 9 A 0.50005 0.50005 0 0 0 29.890625 8.1894531 L 25.890625 3.1894531 A 0.50005 0.50005 0 0 0 25.498047 3.0019531 z M 25.5 4.3007812 L 28.458984 8 L 27.5 8 A 0.50005 0.50005 0 0 0 27 8.5 L 27 17.927734 C 26.125151 17.375045 25.100534 17.044715 24 17.009766 L 24 8.5 A 0.50005 0.50005 0 0 0 23.5 8 L 22.541016 8 L 25.5 4.3007812 z M 9.5 11 A 0.50005 0.50005 0 0 0 9 11.5 L 9 26.5 A 0.50005 0.50005 0 0 0 9.5 27 L 13.5 27 A 0.50005 0.50005 0 0 0 14 26.5 L 14 11.5 A 0.50005 0.50005 0 0 0 13.5 11 L 9.5 11 z M 10 12 L 13 12 L 13 26 L 10 26 L 10 12 z M 2.5 15 A 0.50005 0.50005 0 0 0 2 15.5 L 2 26.5 A 0.50005 0.50005 0 0 0 2.5 27 L 6.5 27 A 0.50005 0.50005 0 0 0 7 26.5 L 7 15.5 A 0.50005 0.50005 0 0 0 6.5 15 L 2.5 15 z M 3 16 L 6 16 L 6 26 L 3 26 L 3 16 z M 23.808594 18 C 26.575942 18 28.808596 20.2327 28.808594 23 C 28.808596 25.7674 26.575942 28 23.808594 28 C 21.041246 28 18.808592 25.7674 18.808594 23 C 18.808592 20.2327 21.041246 18 23.808594 18 z M 23.525391 19 L 23.525391 19.925781 C 23.273925 19.956681 23.047141 20.017568 22.84375 20.107422 C 22.640359 20.197218 22.466488 20.312797 22.322266 20.453125 C 22.18174 20.593511 22.071799 20.758358 21.994141 20.949219 C 21.920177 21.140137 21.884766 21.351907 21.884766 21.582031 C 21.884766 21.831904 21.926664 22.051327 22.011719 22.242188 C 22.100471 22.433048 22.225959 22.602084 22.388672 22.748047 C 22.555083 22.894009 22.755306 23.021373 22.988281 23.130859 C 23.224955 23.237558 23.491268 23.330735 23.787109 23.412109 C 24.008991 23.48512 24.198198 23.562039 24.353516 23.640625 C 24.51253 23.719211 24.638226 23.803842 24.734375 23.896484 C 24.834225 23.989127 24.906799 24.088672 24.951172 24.195312 C 24.995545 24.302011 25.017578 24.418591 25.017578 24.544922 C 25.017578 24.69646 24.991015 24.835442 24.935547 24.958984 C 24.880077 25.079681 24.798649 25.182523 24.691406 25.269531 C 24.587862 25.35381 24.458051 25.419169 24.302734 25.466797 C 24.151115 25.511521 23.977246 25.535156 23.78125 25.535156 C 23.640725 25.535156 23.4999 25.517061 23.359375 25.480469 C 23.21885 25.443993 23.091202 25.379752 22.976562 25.287109 C 22.861921 25.194467 22.769478 25.069282 22.699219 24.912109 C 22.628959 24.754937 22.59375 24.556964 22.59375 24.318359 L 21.617188 24.318359 C 21.617188 24.63555 21.667731 24.907429 21.767578 25.134766 C 21.867425 25.359372 22.001558 25.546562 22.167969 25.695312 C 22.338077 25.844121 22.531816 25.95657 22.75 26.035156 C 22.968183 26.114033 23.192806 26.166431 23.425781 26.191406 L 23.425781 27 L 24.197266 27 L 24.197266 26.191406 C 24.474617 26.163352 24.723431 26.107658 24.945312 26.023438 C 25.167194 25.939217 25.356402 25.825933 25.511719 25.685547 C 25.667036 25.545218 25.787992 25.380314 25.873047 25.189453 C 25.958101 24.995746 26 24.778502 26 24.537109 C 26 24.290083 25.960263 24.072838 25.878906 23.884766 C 25.79755 23.696693 25.676594 23.529893 25.517578 23.386719 C 25.358563 23.243602 25.162663 23.118417 24.929688 23.011719 C 24.696713 22.902232 24.428238 22.805758 24.125 22.71875 C 23.888327 22.642952 23.688104 22.564914 23.525391 22.486328 C 23.366375 22.404954 23.238518 22.31837 23.138672 22.228516 C 23.038822 22.138661 22.966248 22.042187 22.921875 21.935547 C 22.881198 21.826061 22.861328 21.703112 22.861328 21.568359 C 22.861328 21.422397 22.881198 21.288665 22.921875 21.167969 C 22.966251 21.047272 23.03018 20.945548 23.115234 20.861328 C 23.203987 20.774262 23.313929 20.705831 23.443359 20.658203 C 23.57279 20.610575 23.724839 20.587891 23.902344 20.587891 C 24.072453 20.587891 24.224293 20.619006 24.357422 20.683594 C 24.49055 20.748124 24.602653 20.838005 24.691406 20.953125 C 24.780162 21.068187 24.846252 21.204156 24.890625 21.361328 C 24.938702 21.518559 24.962891 21.692787 24.962891 21.880859 L 25.933594 21.880859 C 25.933594 21.311008 25.790607 20.861604 25.505859 20.533203 C 25.224809 20.201956 24.826317 19.999852 24.308594 19.929688 L 24.308594 19 L 23.525391 19 z M 17 20 L 18.619141 20 C 18.106156 20.883658 17.808593 21.90699 17.808594 23 C 17.808593 24.093966 18.107277 25.115818 18.621094 26 L 17 26 L 17 20 z " id="rect5462" style="color:#000000;font-style:normal;font-variant:normal;font-weight:normal;font-stretch:normal;font-size:medium;line-height:normal;font-family:sans-serif;text-indent:0;text-align:start;text-decoration:none;text-decoration-line:none;text-decoration-style:solid;text-decoration-color:#000000;letter-spacing:normal;word-spacing:normal;text-transform:none;direction:ltr;block-progression:tb;writing-mode:lr-tb;baseline-shift:baseline;text-anchor:start;white-space:normal;clip-rule:nonzero;display:inline;overflow:visible;visibility:visible;opacity:1;isolation:auto;mix-blend-mode:normal;color-interpolation:sRGB;color-interpolation-filters:linearRGB;solid-color:#000000;solid-opacity:1;fill:#000000;fill-opacity:1;fill-rule:nonzero;stroke:none;stroke-width:1;stroke-linecap:butt;stroke-linejoin:round;stroke-miterlimit:4;stroke-dasharray:none;stroke-dashoffset:0;stroke-opacity:1;color-rendering:auto;image-rendering:auto;shape-rendering:auto;text-rendering:auto;enable-background:accumulate" transform="translate(0,1020.3622)"/><g id="text5472" style="font-style:normal;font-variant:normal;font-weight:normal;font-stretch:normal;font-size:9.89761639px;line-height:125%;font-family:'Roboto Condensed';-inkscape-font-specification:'Roboto Condensed, ';letter-spacing:0px;word-spacing:0px;fill:#000000;fill-opacity:1;stroke:none;stroke-width:1px;stroke-linecap:butt;stroke-linejoin:miter;stroke-opacity:1" transform="scale(1.1477838,0.87124422)"/></g></svg>